<?xml version="1.0" standalone="no"?>
<!DOCTYPE svg PUBLIC "-//W3C//DTD SVG 20010904//EN"
 "http://www.w3.org/TR/2001/REC-SVG-20010904/DTD/svg10.dtd">
<svg version="1.0" xmlns="http://www.w3.org/2000/svg"
 width="1272.000000pt" height="1272.000000pt" viewBox="0 0 1272.000000 1272.000000"
 preserveAspectRatio="xMidYMid meet">
<metadata>
Created by potrace 1.11, written by Peter Selinger 2001-2013
</metadata>
<g transform="translate(0.000000,1272.000000) scale(0.100000,-0.100000)"
fill="#000000" stroke="none">
<path d="M1227 11492 l-1227 -1227 2 -1293 3 -1292 2520 2520 2520 2520 -1295
0 -1295 0 -1228 -1228z"/>
<path d="M3792 8927 l-3792 -3792 2 -1293 3 -1292 5085 5085 5085 5085 -1295
0 -1295 0 -3793 -3793z"/>
<path d="M6355 6360 l-6360 -6360 1295 0 1295 0 5068 5068 5067 5067 -2 1293
-3 1292 -6360 -6360z"/>
<path d="M8920 3795 l-3795 -3795 1295 0 1295 0 2503 2503 2502 2502 -2 1293
-3 1292 -3795 -3795z"/>
<path d="M11480 1235 l-1235 -1235 1238 0 1237 0 0 1235 c0 679 -1 1235 -3
1235 -1 0 -558 -556 -1237 -1235z"/>
</g>
</svg>
